Patient4_TMGait_0pt6_02_left_12_EMG.mot
version=1
nRows=23
nColumns=33
inDegrees=no
endheader
time	1LAddLong	2LGlutMax	3LGlutMed	4LIliopsoas	5LSemiMemb	6LBicFemLong	7LRecFem	8LVastMed	9LVastLat	10LGasMed	11LTibAnt	12lTibPost	13LPeroneusLong	14LSol	15LExtDigLong	16LFlexDigLong	17RAddLong	18RGlutMax	19RGlutMed	20RIliopsoas	21RSemiMemb	22RBicFemLong	23RRecFem	24RVastMed	25RVastLat	26RGasMed	27RTibAnt	28RTibPost	29RPeroneusLong	30RSol	31RExtDigLong	32RFlexDigLong
16.038	0.014343	0.12787	0.029602	0.004883	0.009003	0.032043	0.002594	0.000916	0.054169	-0.018311	0.023956	0.001984	0.050354	-0.055847	-0.009918	0.00473	-0.006714	0.12283	0.073547	0.001221	0.091858	0.008698	-0.035706	0.023499	0.072632	0.003357	0.7692	-0.002289	-0.94971	0.14862	0.003662	-0.01358
16.039	0.010529	0.14755	-0.035248	0.010223	0.009766	0.041656	0.000763	0	0.059662	-0.021667	0.026855	0.001526	0.047455	-0.063324	-0.007477	0.004883	0.002289	0.23468	0.085297	-0.041351	0.21469	-0.08606	-0.43793	-0.007935	0.16876	0.008698	-0.19486	-0.002441	0.66528	-0.1889	0.002594	-0.015106
16.04	0.006561	0.17914	-0.068054	0.01358	0.006714	0.020142	0.005035	0.000763	0.058136	-0.012512	0.017853	0.005035	0.039673	-0.060272	-0.007324	0.001831	0.027161	0.35416	-0.014496	-0.17853	0.11154	-0.10925	-0.38238	0.095825	0.26077	0.010376	-0.68466	-0.003357	-0.24155	-0.33569	-0.001373	-0.006866
16.041	0.010376	0.19302	-0.074768	0.014954	-0.019989	0.018768	0.007019	0.000763	0.046692	-0.007629	0.019379	0.00412	0.06485	-0.030823	-0.002747	0.012665	0.030823	0.49255	0.34088	-0.18936	-0.36194	0.053864	-0.043182	0.054932	0.18265	0.007172	-0.66101	-0.006409	-1.1339	-0.18539	0.00061	-0.005646
16.042	0.009766	0.15701	-0.033264	0.019989	-0.005798	0.002136	0.020752	0.002594	0.042877	-0.021667	0.021973	0.005951	0.059204	-0.026245	-0.010681	0.005493	0.019531	0.5336	-0.15945	-0.072479	-0.71823	0.14465	0.10635	-0.008392	0.054626	0.009308	-0.30594	-0.008698	-0.21362	0.014954	-0.00061	-0.010376
16.043	0.00885	0.14847	-0.000916	0.003967	-0.015564	-0.012054	0.019836	0.004578	0.036163	-0.016937	0.004883	0.000763	0.028076	-0.021515	-0.009155	0.016327	0.000153	0.54504	-0.26169	0.071259	-0.32364	0.1506	0.12054	-0.061493	-0.037384	0.024261	-0.13458	-0.001526	0.74127	0.12802	-0.000458	-0.013885
16.044	0.007629	0.1091	0.046539	0.020294	0.006866	-0.016327	0.010071	0.004883	0.028381	-0.003204	0.019989	0.002899	-0.002747	-0.024109	-0.011292	0.00351	-0.009155	0.59158	0.41718	0.13428	0.4335	0.084229	0.13016	-0.016785	-0.061951	0.020142	0.031738	0.008392	0.42465	0.065918	-0.001831	-0.0177
16.045	0.011597	0.098114	0.050354	-0.000458	0.03952	-0.002136	0.009613	0.007782	0.041504	0.004272	0.025177	0.002136	0.020752	-0.10407	-0.013275	0.013123	-0.033112	0.61935	0.3833	0.11551	0.35309	0.016479	0.14481	-0.018158	-0.048523	-0.003204	0.090637	-0.002441	0.093536	-0.056763	0.003662	-0.014343
16.046	0.011597	0.053864	0.040894	0.00946	0.044098	0.021667	0.017242	0.007782	0.028381	-0.002289	0.018921	0.00824	0.032654	-0.11169	0.005341	0.008392	-0.060883	0.57922	0.14725	0.027008	0.12451	-0.046082	-0.063629	0.058594	-0.006866	-0.01709	-0.083618	-0.009003	0.10605	-0.24765	-0.000305	-0.023956
16.047	0.007782	0.032654	0.035095	0.010986	-0.001831	0.037994	0.016632	0.005188	0.041199	-0.00824	0.01358	0.005341	0.013885	-0.18433	0.013733	-0.005646	-0.021057	0.62164	0.21011	-0.008545	0.055847	-0.12909	-0.12711	-0.027161	0.047913	-0.024719	-0.14358	-0.003357	0.20706	-0.18417	-0.000305	-0.01358
16.048	0.00946	0.059204	-0.001068	0.014191	-0.038757	0.040741	0.015259	-0.001984	0.03891	-0.028534	0.019989	0.00946	0.009613	-0.12421	0.008087	0.000458	0.01709	0.71457	0.020294	-0.05127	-0.00824	-0.16434	-0.077057	-0.050812	0.074768	-0.019836	-0.051575	-0.003052	0.26032	-0.19379	0.000153	-0.014343
16.049	0.005035	0.054321	-0.019531	0.019684	-0.092773	0.039825	0.00946	0.009308	0.03418	-0.033417	0.024872	0.007629	0.001984	-0.063934	0.005646	0.001984	0.06012	0.6868	-0.14206	-0.067596	-0.10086	-0.018158	-0.055389	-0.092468	0.10422	-0.006104	-0.19913	-0.010681	0.084229	-0.055084	0.001678	-0.012512
16.05	0.000153	0.01709	-0.012207	-0.003052	-0.046387	0.037384	-0.009613	0.006256	0.036011	-0.037537	0.022583	0.007782	-0.005341	-0.070801	-0.002441	0.004578	0.049438	0.74936	-0.034485	-0.03067	-0.10834	0.073853	0.03952	-0.12772	0.063324	0.001678	-0.25772	-0.00946	-0.22553	-0.095062	-0.000458	-0.000916
16.051	0.00412	0.008545	-0.032196	0.003357	0.017853	0.077972	-0.012054	0.005798	0.038757	-0.033264	0.014801	0.00351	-0.010071	-0.13351	0.004578	-0.001373	0.000916	0.75104	0.02182	0.022125	-0.12497	0.14572	0.068665	-0.027618	0.082245	0.008698	-0.31342	-0.004578	-0.21271	-0.012207	0.001526	-0.011749
16.052	0.007019	0.013275	-0.021515	0.010834	0.015411	0.039215	-0.027924	0.010681	0.054016	-0.035553	0.022888	0.00473	-0.016785	-0.17303	-0.00946	-0.001068	-0.057983	0.8519	-0.032196	0.023499	0.018311	0.072174	-0.037384	0.094299	0.052185	-0.004272	-0.24475	-0.000153	-0.086212	0.17319	-0.002747	-0.012512
16.053	0.005035	-0.00885	-0.012054	0.007019	-0.004578	0.018768	-0.032349	0.005646	0.063171	-0.042267	0.019379	-0.003052	-0.015259	-0.16266	-0.00473	-0.002747	-0.058289	0.7193	0.005951	0.007324	0.16647	-0.003052	-0.03952	0.17838	0.06485	-0.018158	-0.13107	-0.001678	-0.19928	0.088806	-0.001373	-0.014038
16.054	0.011139	-0.000458	-0.065613	0.002899	0.049591	-0.028229	-0.024872	0.001373	0.058594	-0.035858	0.020447	0.00473	-0.009003	-0.067596	-0.001373	0.001984	-0.05661	0.61859	-0.058746	-0.001678	0.17059	-0.031891	0.039063	0.14908	0.034332	-0.026703	-0.11627	0.000763	-0.38818	0.17868	0.003052	0.002289
16.055	0.010376	-0.030975	-0.092316	-0.00946	0.02655	-0.059357	-0.029297	0.006714	0.058136	-0.043335	0.018005	0.006561	-0.011902	-0.048828	0.007477	0.004578	-0.02655	0.5658	0.097961	-0.00824	0.13565	-0.084076	0.094757	0.15167	0.023651	-0.031128	0.099182	-0.002289	-0.054321	0.36423	0.001984	-0.009003
16.056	0.015717	-0.033264	-0.11032	0.007172	0.028076	-0.046539	-0.018005	0.00824	0.033569	-0.055542	0.026855	0.001068	-0.01297	-0.037537	0.011749	0.009918	-0.009918	0.5278	0.06012	0.039673	0.12192	-0.033264	0.039063	0.084686	0.018616	-0.051422	0.18265	-0.009918	0.36652	0.29831	-0.010986	-0.00473
16.057	0.014496	-0.026093	-0.022125	-0.00061	0.041199	-0.007019	-0.029449	0.005035	0.036316	-0.04837	0.02121	0.00824	-0.016937	-0.080566	-0.001221	-0.000458	-0.005798	0.51148	0.001373	0.037079	0.035858	0.032654	-0.099792	0.023804	0.041504	-0.086365	0.013733	-0.014038	0.46463	-0.095978	0.000305	-0.016174
16.058	0.007324	-0.071259	0.063324	0.029755	-0.013123	0.06073	-0.039215	0.000916	0.01297	-0.042877	0.022278	0.006104	-0.02594	-0.10223	-0.002136	0.010223	0.002594	0.36362	0.039368	0.02533	-0.001984	0.036774	-0.041809	0.039368	0.046387	-0.11719	-0.072479	-0.020447	0.57602	-0.49439	0.00061	-0.018921
16.059	0.001831	-0.1239	0.019836	0.033875	-0.042419	0.089417	-0.021057	0.009003	-0.003204	-0.026245	0.020294	0.00824	-0.018463	-0.058136	0.001526	0.008392	-0.007935	0.27313	-0.14069	-0.018005	-0.015106	0.036011	0.068817	0.055084	0.029602	-0.075378	0.005646	-0.025482	0.36346	-0.63431	0.00061	-0.020905
16.06	0.007019	-0.11047	-0.008698	0.012054	-0.11368	0.050964	-0.013885	0.01236	0.00412	-0.024261	0.018463	0.001373	-0.008545	-0.0383	0.001373	0.004425	0.006714	0.20798	-0.28137	-0.021667	-0.029144	-0.069885	0.074615	0.062408	0.016632	-0.027618	0.19379	-0.023956	0.16663	-0.49057	0.009308	-0.016479
